<svg width="18" height="32" viewBox="0 0 18 32" fill="none" xmlns="http://www.w3.org/2000/svg">
<path d="M9.5127 31.7885L16.7853 24.5159C17.0904 24.2547 17.1259 23.7956 16.8646 23.4905C16.6034 23.1855 16.1443 23.1499 15.8392 23.4112C15.8108 23.4356 15.7842 23.4621 15.7599 23.4905L9.72364 29.5195L9.72364 0.727237C9.72364 0.325619 9.39802 -3.34022e-07 8.99634 -3.5158e-07C8.59466 -3.69138e-07 8.2691 0.325619 8.2691 0.727237L8.2691 15.1234L8.2691 29.5195L2.24015 23.4905C1.9789 23.1855 1.51978 23.1499 1.21473 23.4112C0.909669 23.6725 0.874108 24.1316 1.13542 24.4366C1.15979 24.4651 1.18629 24.4916 1.21473 24.5159L8.48735 31.7886C8.77091 32.0705 9.22902 32.0705 9.5127 31.7885Z" fill="#838383"/>
</svg>
