<svg width="32" height="32" viewBox="0 0 32 32" fill="none" xmlns="http://www.w3.org/2000/svg">
<g clip-path="url(#clip0_85_8)">
<path d="M15.4874 0.211495L8.21473 7.48405C7.90968 7.7453 7.87411 8.20442 8.13542 8.50947C8.39667 8.81453 8.85578 8.85009 9.16084 8.58879C9.18928 8.56441 9.21584 8.53791 9.24015 8.50947L15.2764 2.48052L15.2764 31.2728C15.2764 31.6744 15.602 32 16.0037 32C16.4054 32 16.731 31.6744 16.731 31.2728L16.731 16.8766L16.731 2.48052L22.7599 8.50947C23.0212 8.81453 23.4803 8.85009 23.7853 8.58879C24.0904 8.32748 24.126 7.86842 23.8646 7.56337C23.8403 7.53493 23.8138 7.50837 23.7853 7.48405L16.5127 0.211432C16.2292 -0.070501 15.771 -0.0705005 15.4874 0.211495Z" fill="#224B62"/>
</g>
<defs>
<clipPath id="clip0_85_8">
<rect width="32" height="32" fill="white" transform="translate(32) rotate(90)"/>
</clipPath>
</defs>
</svg>
