<svg width="21" height="20" viewBox="0 0 21 20" fill="none" xmlns="http://www.w3.org/2000/svg">
<g clip-path="url(#clip0_2_111)">
<path d="M18.1108 0.15625H3.2017C2.52661 0.15625 1.87916 0.424431 1.4018 0.901796C0.924431 1.37916 0.65625 2.02661 0.65625 2.7017V17.6108C0.65625 18.2859 0.924431 18.9333 1.4018 19.4107C1.87916 19.8881 2.52661 20.1562 3.2017 20.1562H10.5049V11.8346H8.84057V8.50598H10.4911V7.00171C10.4911 5.64025 11.1397 3.51325 13.9938 3.51325L16.5649 3.52357V6.37543H14.6978C14.3942 6.37543 13.9622 6.52661 13.9622 7.17507V8.5062H16.6074L16.3038 11.8348H13.8335V20.1562H18.1108C18.4451 20.1562 18.7761 20.0904 19.0849 19.9625C19.3937 19.8346 19.6743 19.6471 19.9107 19.4107C20.1471 19.1743 20.3346 18.8937 20.4625 18.5849C20.5904 18.2761 20.6562 17.9451 20.6562 17.6108V2.7017C20.6562 2.36743 20.5904 2.03643 20.4625 1.7276C20.3346 1.41877 20.1471 1.13816 19.9107 0.901796C19.6743 0.665429 19.3937 0.477932 19.0849 0.350011C18.7761 0.22209 18.4451 0.15625 18.1108 0.15625Z" fill="#F0F0F0"/>
</g>
<defs>
<clipPath id="clip0_2_111">
<rect width="20" height="20" fill="white" transform="translate(0.5)"/>
</clipPath>
</defs>
</svg>
