<svg width="21" height="20" viewBox="0 0 21 20" fill="none" xmlns="http://www.w3.org/2000/svg">
<path d="M13.0039 9.89832C12.668 9.83972 12.3164 9.84754 11.9727 9.86707C11.1914 9.91004 10.4102 9.98425 9.62894 9.91394C9.25784 9.87878 8.88284 9.84363 8.50784 9.85144C7.82815 9.86316 7.25784 10.0858 6.9219 10.7343C6.75394 11.0546 6.71487 11.3983 6.72659 11.7538C6.75394 12.7538 7.18753 13.3241 8.14065 13.6093C8.90628 13.8358 9.69144 13.8671 10.4805 13.8514C10.7735 13.8514 11.0664 13.8671 11.3594 13.8475C11.9649 13.8124 12.5586 13.7225 13.1328 13.5116C13.7266 13.2928 14.0821 12.8749 14.211 12.2694C14.2617 12.035 14.2852 11.7889 14.2813 11.5507C14.2735 10.7421 13.7266 10.0194 13.0039 9.89832ZM9.16019 12.5428C8.90628 12.8202 8.53909 12.8241 8.27737 12.5546C8.08597 12.3593 7.97659 12.0585 7.97659 11.6835C7.9844 11.4296 8.05862 11.1522 8.27737 10.9296C8.53909 10.66 8.90628 10.6639 9.16019 10.9374C9.543 11.3514 9.543 12.1288 9.16019 12.5428ZM12.711 12.5624C12.4727 12.8085 12.1289 12.8163 11.875 12.5897C11.4375 12.1913 11.4375 11.3046 11.875 10.9022C12.125 10.6718 12.4688 10.6796 12.711 10.9257C12.9336 11.1522 13.0078 11.4374 13.0196 11.7421C13.0078 12.0507 12.9297 12.3319 12.711 12.5624Z" fill="#F6FBFE"/>
<path d="M18.9375 0H2.0625C1.19922 0 0.5 0.699219 0.5 1.5625V18.4375C0.5 19.3008 1.19922 20 2.0625 20H18.9375C19.8008 20 20.5 19.3008 20.5 18.4375V1.5625C20.5 0.699219 19.8008 0 18.9375 0ZM15.625 10.875C15.5703 11.3203 15.4766 11.7773 15.3164 12.1953C14.8477 13.3945 13.9102 14.0547 12.668 14.2539C11.957 14.3672 11.2266 14.3711 10.4375 14.4297C9.73047 14.3672 8.95312 14.3594 8.19922 14.2266C6.73828 13.9688 5.74609 12.9453 5.45703 11.4805C5.30859 10.7344 5.26562 9.98438 5.49609 9.24219C5.61719 8.85938 5.81641 8.51953 6.07422 8.21094C6.10938 8.17188 6.14062 8.11328 6.13672 8.0625C6.09375 7.39062 6.17188 6.72656 6.37109 6.08594C6.53516 5.55078 6.41406 5.58203 7.00781 5.73828C7.72266 5.92578 8.34766 6.3125 8.96094 6.71484C9.03125 6.76172 9.14062 6.78125 9.22656 6.76563C10.0938 6.63281 10.957 6.625 11.8242 6.77734C11.8867 6.78906 11.9688 6.76562 12.0273 6.73047C12.5547 6.38672 13.0977 6.07812 13.6914 5.86328C13.9062 5.78516 14.1328 5.73438 14.3516 5.66797C14.4492 5.64063 14.4922 5.67578 14.5273 5.76953C14.793 6.51172 14.9023 7.27344 14.8633 8.05859C14.8594 8.10156 14.8828 8.16016 14.9102 8.19531C15.5781 8.96875 15.7461 9.89062 15.625 10.875Z" fill="#F6FBFE"/>
</svg>
