<svg width="20" height="20" viewBox="0 0 20 20" fill="none" xmlns="http://www.w3.org/2000/svg">
<path d="M12.5039 9.89844C12.168 9.83984 11.8164 9.84766 11.4727 9.86719C10.6914 9.91016 9.91016 9.98438 9.12891 9.91406C8.75781 9.87891 8.38281 9.84375 8.00781 9.85156C7.32812 9.86328 6.75781 10.0859 6.42187 10.7344C6.25391 11.0547 6.21484 11.3984 6.22656 11.7539C6.25391 12.7539 6.6875 13.3242 7.64062 13.6094C8.40625 13.8359 9.19141 13.8672 9.98047 13.8516C10.2734 13.8516 10.5664 13.8672 10.8594 13.8477C11.4648 13.8125 12.0586 13.7227 12.6328 13.5117C13.2266 13.293 13.582 12.875 13.7109 12.2695C13.7617 12.0352 13.7852 11.7891 13.7812 11.5508C13.7734 10.7422 13.2266 10.0195 12.5039 9.89844ZM8.66016 12.543C8.40625 12.8203 8.03906 12.8242 7.77734 12.5547C7.58594 12.3594 7.47656 12.0586 7.47656 11.6836C7.48437 11.4297 7.55859 11.1523 7.77734 10.9297C8.03906 10.6602 8.40625 10.6641 8.66016 10.9375C9.04297 11.3516 9.04297 12.1289 8.66016 12.543ZM12.2109 12.5625C11.9727 12.8086 11.6289 12.8164 11.375 12.5898C10.9375 12.1914 10.9375 11.3047 11.375 10.9023C11.625 10.6719 11.9687 10.6797 12.2109 10.9258C12.4336 11.1523 12.5078 11.4375 12.5195 11.7422C12.5078 12.0508 12.4297 12.332 12.2109 12.5625Z" fill="#626262"/>
<path d="M18.4375 0H1.5625C0.699219 0 0 0.699219 0 1.5625V18.4375C0 19.3008 0.699219 20 1.5625 20H18.4375C19.3008 20 20 19.3008 20 18.4375V1.5625C20 0.699219 19.3008 0 18.4375 0ZM15.125 10.875C15.0703 11.3203 14.9766 11.7773 14.8164 12.1953C14.3477 13.3945 13.4102 14.0547 12.168 14.2539C11.457 14.3672 10.7266 14.3711 9.9375 14.4297C9.23047 14.3672 8.45312 14.3594 7.69922 14.2266C6.23828 13.9688 5.24609 12.9453 4.95703 11.4805C4.80859 10.7344 4.76562 9.98438 4.99609 9.24219C5.11719 8.85938 5.31641 8.51953 5.57422 8.21094C5.60938 8.17188 5.64062 8.11328 5.63672 8.0625C5.59375 7.39062 5.67188 6.72656 5.87109 6.08594C6.03516 5.55078 5.91406 5.58203 6.50781 5.73828C7.22266 5.92578 7.84766 6.3125 8.46094 6.71484C8.53125 6.76172 8.64062 6.78125 8.72656 6.76563C9.59375 6.63281 10.457 6.625 11.3242 6.77734C11.3867 6.78906 11.4688 6.76562 11.5273 6.73047C12.0547 6.38672 12.5977 6.07812 13.1914 5.86328C13.4062 5.78516 13.6328 5.73438 13.8516 5.66797C13.9492 5.64063 13.9922 5.67578 14.0273 5.76953C14.293 6.51172 14.4023 7.27344 14.3633 8.05859C14.3594 8.10156 14.3828 8.16016 14.4102 8.19531C15.0781 8.96875 15.2461 9.89062 15.125 10.875Z" fill="#626262"/>
</svg>
