<svg width="21" height="20" viewBox="0 0 21 20" fill="none" xmlns="http://www.w3.org/2000/svg">
<path d="M3.35714 0H17.6429C19.2143 0 20.5 1.28571 20.5 2.85714V17.1429C20.5 18.7143 19.2143 20 17.6429 20H3.35714C1.78571 20 0.5 18.7143 0.5 17.1429V2.85714C0.5 1.28571 1.78571 0 3.35714 0Z" fill="#F0F0F0"/>
<path d="M14.2857 5.5C13.8572 5.5 13.4286 5.85714 13.4286 6.35714C13.4286 6.85714 13.7857 7.21429 14.2857 7.21429C14.7857 7.21429 15.1429 6.85714 15.1429 6.35714C15.0714 5.85714 14.7143 5.5 14.2857 5.5Z" fill="#224B62"/>
<path d="M10.5 6.57153C8.57143 6.57153 7 8.14296 7 10.0715C7 12.0001 8.57143 13.5715 10.5 13.5715C12.4286 13.5715 14 12.0001 14 10.0715C14.0714 8.14296 12.5 6.57153 10.5 6.57153ZM10.5 12.3572C9.28571 12.3572 8.21429 11.3572 8.21429 10.0715C8.21429 8.85725 9.21429 7.78582 10.5 7.78582C11.7143 7.78582 12.7857 8.78582 12.7857 10.0715C12.7857 11.3572 11.7857 12.3572 10.5 12.3572Z" fill="#224B62"/>
<path d="M13.3572 2.85718H7.64289C5.28575 2.85718 3.35718 4.78575 3.35718 7.14289V12.8572C3.35718 15.2143 5.28575 17.1429 7.64289 17.1429H13.3572C15.7143 17.1429 17.6429 15.2143 17.6429 12.8572V7.14289C17.6429 4.78575 15.7143 2.85718 13.3572 2.85718ZM16.2857 12.8572C16.2857 14.5 14.9286 15.7857 13.3572 15.7857H7.64289C6.00004 15.7857 4.71432 14.4286 4.71432 12.8572V7.14289C4.71432 5.50004 6.07146 4.21432 7.64289 4.21432H13.3572C15 4.21432 16.2857 5.57146 16.2857 7.14289V12.8572Z" fill="#224B62"/>
</svg>
