<svg width="20" height="20" viewBox="0 0 20 20" fill="none" xmlns="http://www.w3.org/2000/svg">
<path d="M2.85714 0H17.1429C18.7143 0 20 1.28571 20 2.85714V17.1429C20 18.7143 18.7143 20 17.1429 20H2.85714C1.28571 20 0 18.7143 0 17.1429V2.85714C0 1.28571 1.28571 0 2.85714 0Z" fill="#626262"/>
<path d="M13.7857 5.5C13.3572 5.5 12.9286 5.85714 12.9286 6.35714C12.9286 6.85714 13.2857 7.21429 13.7857 7.21429C14.2857 7.21429 14.6429 6.85714 14.6429 6.35714C14.5714 5.85714 14.2143 5.5 13.7857 5.5Z" fill="white"/>
<path d="M10 6.57141C8.07143 6.57141 6.5 8.14284 6.5 10.0714C6.5 12 8.07143 13.5714 10 13.5714C11.9286 13.5714 13.5 12 13.5 10.0714C13.5714 8.14284 12 6.57141 10 6.57141ZM10 12.3571C8.78571 12.3571 7.71429 11.3571 7.71429 10.0714C7.71429 8.85713 8.71429 7.7857 10 7.7857C11.2143 7.7857 12.2857 8.7857 12.2857 10.0714C12.2857 11.3571 11.2857 12.3571 10 12.3571Z" fill="white"/>
<path d="M12.8571 2.85712H7.14286C4.78572 2.85712 2.85715 4.78569 2.85715 7.14283V12.8571C2.85715 15.2143 4.78572 17.1428 7.14286 17.1428H12.8571C15.2143 17.1428 17.1429 15.2143 17.1429 12.8571V7.14283C17.1429 4.78569 15.2143 2.85712 12.8571 2.85712ZM15.7857 12.8571C15.7857 14.5 14.4286 15.7857 12.8571 15.7857H7.14286C5.5 15.7857 4.21429 14.4285 4.21429 12.8571V7.14283C4.21429 5.49997 5.57143 4.21426 7.14286 4.21426H12.8571C14.5 4.21426 15.7857 5.5714 15.7857 7.14283V12.8571Z" fill="white"/>
</svg>
