<svg width="21" height="20" viewBox="0 0 21 20" fill="none" xmlns="http://www.w3.org/2000/svg">
<g clip-path="url(#clip0_2_113)">
<path d="M18.5 0H2.5C1.4 0 0.5 0.9 0.5 2V18C0.5 19.1 1.4 20 2.5 20H18.5C19.6 20 20.5 19.1 20.5 18V2C20.5 0.9 19.6 0 18.5 0ZM6.5 17H3.5V8H6.5V17ZM5 6.3C4 6.3 3.2 5.5 3.2 4.5C3.2 3.5 4 2.7 5 2.7C6 2.7 6.8 3.5 6.8 4.5C6.8 5.5 6 6.3 5 6.3ZM17.5 17H14.5V11.7C14.5 10.9 13.8 10.2 13 10.2C12.2 10.2 11.5 10.9 11.5 11.7V17H8.5V8H11.5V9.2C12 8.4 13.1 7.8 14 7.8C15.9 7.8 17.5 9.4 17.5 11.3V17Z" fill="#F0F0F0"/>
</g>
<defs>
<clipPath id="clip0_2_113">
<rect width="20" height="20" fill="white" transform="translate(0.5)"/>
</clipPath>
</defs>
</svg>
