<svg width="22" height="20" viewBox="0 0 22 20" fill="none" xmlns="http://www.w3.org/2000/svg">
<g clip-path="url(#clip0_2_117)">
<path d="M17.5 0H3.5C1.84315 0 0.5 1.34315 0.5 3V17C0.5 18.6569 1.84315 20 3.5 20H17.5C19.1569 20 20.5 18.6569 20.5 17V3C20.5 1.34315 19.1569 0 17.5 0Z" fill="#F1F1F1"/>
<path d="M8.27344 15.7812C7.84375 15.7812 7.88281 15.625 7.76562 15.2344L6.51562 11.1328L16.0859 5.50781" fill="#2D5B76"/>
<path d="M8.27344 15.7812C8.54688 15.7812 8.70312 15.625 8.89844 15.4688L10.6562 13.7891L8.46875 12.4609" fill="#173F56"/>
<path d="M8.46877 12.461L13.7422 16.3282C14.2891 16.6797 14.7578 16.4844 14.9141 15.7813L17.0625 5.70317C17.2578 4.8438 16.711 4.45317 16.125 4.72661L3.58596 9.57036C2.76564 9.88286 2.76564 10.3907 3.42971 10.586L6.67189 11.6016L14.0938 6.87505C14.4453 6.67974 14.7578 6.75786 14.5235 7.0313" fill="#17425B"/>
</g>
<defs>
<clipPath id="clip0_2_117">
<rect width="21" height="20" fill="white" transform="translate(0.5)"/>
</clipPath>
</defs>
</svg>
