<svg width="20" height="20" viewBox="0 0 20 20" fill="none" xmlns="http://www.w3.org/2000/svg">
<g clip-path="url(#clip0_2_51)">
<path d="M16.1905 0H2.85714C1.27919 0 0 1.34315 0 3V17C0 18.6569 1.27919 20 2.85714 20H16.1905C17.7684 20 19.0476 18.6569 19.0476 17V3C19.0476 1.34315 17.7684 0 16.1905 0Z" fill="#626262"/>
<path d="M7.40326 15.7812C6.99404 15.7812 7.03124 15.625 6.91963 15.2344L5.72916 11.1328L14.8437 5.50781" fill="#DEDEDE"/>
<path d="M7.40326 15.7812C7.66368 15.7812 7.81249 15.625 7.9985 15.4688L9.6726 13.7891L7.58927 12.4609" fill="#959595"/>
<path d="M7.58928 12.4609L12.6116 16.3281C13.1324 16.6797 13.5789 16.4844 13.7277 15.7812L15.7738 5.70311C15.9598 4.84374 15.439 4.45311 14.881 4.72655L2.93899 9.5703C2.15774 9.8828 2.15774 10.3906 2.79018 10.5859L5.87798 11.6016L12.9464 6.87499C13.2812 6.67968 13.5789 6.7578 13.3557 7.03124" fill="#F6FBFE"/>
</g>
<defs>
<clipPath id="clip0_2_51">
<rect width="20" height="20" fill="white"/>
</clipPath>
</defs>
</svg>
